<svg width="33" height="21" viewBox="0 0 33 21" fill="none" xmlns="http://www.w3.org/2000/svg">
<g clip-path="url(#clip0_200_21)">
<path d="M27.0468 7.87133C27.7538 5.20614 25.5675 0.235352 20.4011 0.235352C16.5725 0.235352 15.6371 3.17552 11.9064 2.42461C7.07719 1.46218 5.91338 5.51285 5.84812 6.36952C5.48919 10.8855 9.13288 11.9749 9.13288 11.9749C9.49181 12.0912 10.2205 12.3556 11.2103 12.5883H19.6724C23.142 12.3133 26.0352 11.7739 27.0359 7.86075L27.0468 7.87133Z" fill="black"/>
<path d="M19.5417 8.65403C21.5756 8.65403 23.2289 7.04645 23.2289 5.06871C23.2289 3.09097 21.5756 1.4834 19.5417 1.4834C17.5077 1.4834 15.8545 3.09097 15.8545 5.06871C15.8545 7.04645 17.5077 8.65403 19.5417 8.65403Z" fill="white"/>
<path d="M19.5416 8.26275C21.358 8.26275 22.8264 6.83497 22.8264 5.06875C22.8264 3.30254 21.358 1.87476 19.5416 1.87476C17.7252 1.87476 16.2568 3.30254 16.2568 5.06875C16.2568 6.83497 17.7252 8.26275 19.5416 8.26275Z" fill="black"/>
<path d="M19.542 8.06166C21.2387 8.06166 22.6201 6.71849 22.6201 5.06861C22.6201 3.41873 21.2387 2.07556 19.542 2.07556C17.8452 2.07556 16.4639 3.41873 16.4639 5.06861C16.4639 6.71849 17.8452 8.06166 19.542 8.06166Z" fill="white"/>
<path d="M10.1445 11.1394L12.3199 10.8432L13.4402 10.6L13.3967 9.70102L13.2444 6.62336L12.7332 6.60221L10.8841 6.31665L10.3294 9.94427L10.1445 11.1394Z" fill="white"/>
<path d="M10.1445 11.1394L12.3199 10.8433L13.4402 10.6L13.3967 9.70103C13.2335 9.65872 11.3953 9.83852 10.3294 9.94428L10.1445 11.1394Z" fill="white"/>
<path d="M19.8684 3.41878C20.0098 3.41878 20.1403 3.42936 20.2708 3.46108C20.4013 3.49281 20.521 3.53512 20.6406 3.59857L20.4013 4.12738C20.3034 4.08508 20.2164 4.04277 20.1294 4.02162C20.0424 3.98989 19.9554 3.97932 19.8575 3.97932C19.7705 3.97932 19.6943 3.98989 19.6291 4.02162C19.5638 4.05335 19.4986 4.08508 19.4442 4.13796C19.3898 4.19084 19.3463 4.2543 19.3245 4.3389C19.2919 4.41294 19.2702 4.50812 19.2593 4.61388H20.075V5.01578H19.2266V5.28018H19.9336V5.68208H19.2702C19.2919 5.79841 19.3245 5.90417 19.3789 5.98878C19.4333 6.07339 19.5094 6.13685 19.5965 6.17915C19.6835 6.22146 19.7922 6.24261 19.9119 6.24261C20.0315 6.24261 20.1403 6.23203 20.2382 6.21088C20.3361 6.18973 20.434 6.158 20.5101 6.1157V6.69739C20.434 6.73969 20.3361 6.77142 20.2273 6.80315C20.1185 6.8243 19.9989 6.83488 19.8575 6.83488C19.6182 6.83488 19.4115 6.79257 19.2266 6.69739C19.0417 6.61278 18.8895 6.47529 18.7698 6.30607C18.6502 6.13685 18.5632 5.92533 18.5197 5.68208H18.1934V5.28018H18.4653V5.01578H18.1934V4.61388H18.4979C18.5414 4.36006 18.6284 4.14853 18.7481 3.96874C18.8677 3.78894 19.02 3.65145 19.2049 3.55627C19.3898 3.46108 19.6073 3.4082 19.8575 3.4082L19.8684 3.41878Z" fill="black"/>
<path d="M22.9456 7.81852L20.1068 9.01363H19.3998V7.92429H16.6698L14.2117 7.03589H13.3633L13.5373 10.5683L17.0178 11.6682H18.1708L23.4786 9.01363L22.9456 7.81852Z" fill="white"/>
<path d="M13.4293 10.6L13.3858 9.70102L13.2335 6.62336L12.7223 6.60221L10.8733 6.31665L10.3294 9.94427L10.1772 10.949L10.1445 11.1394L10.9277 11.0336L12.3199 10.8432L12.5265 10.8009L13.4293 10.6Z" fill="white"/>
<path d="M19.4109 8.90786L16.9854 8.85498V8.96074L19.4109 9.01362V8.90786Z" fill="#010101"/>
<path d="M1.25281 19C1.08803 19 0.972681 18.8612 1.00564 18.7224L1.9284 13.9871C2.04374 13.4165 2.57104 13 3.1972 13H33.7472C33.912 13 34.0273 13.1388 33.9944 13.2776L33.0716 18.0129C32.9563 18.5835 32.429 19 31.8028 19H1.25281Z" fill="black"/>
<path d="M4.515 14.7H6.16L5.95 15.505H5.275L5.155 16.17H5.825L5.68 16.955H5.01L4.82 18H3.91L4.515 14.7ZM6.45348 14.7H7.36348L6.75848 18H5.84848L6.45348 14.7ZM9.27789 14.7H10.1329L9.52789 17.985L8.62289 18.045L8.27789 16.415H8.26289L7.97289 18H7.12289L7.72789 14.715L8.62289 14.655L8.96289 16.345H8.97289L9.27789 14.7ZM11.0116 14.715L12.1566 14.67L12.2566 17.985L11.3466 18.045L11.3566 17.485H10.7666L10.6016 18H9.69156L11.0116 14.715ZM10.9966 16.78H11.3766L11.4116 15.53H11.4016L10.9966 16.78ZM14.5611 14.7H15.4161L14.8111 17.985L13.9061 18.045L13.5611 16.415H13.5461L13.2561 18H12.4061L13.0111 14.715L13.9061 14.655L14.2461 16.345H14.2561L14.5611 14.7ZM16.2198 18.06C15.4698 18.06 15.3298 17.69 15.3298 17.155C15.3298 16.86 15.3748 16.525 15.4498 16.165C15.6648 15.1 16.0398 14.64 16.9398 14.64C17.1298 14.64 17.3898 14.695 17.5198 14.75L17.3298 15.53C17.2398 15.505 17.0298 15.46 16.8098 15.46C16.5648 15.46 16.4998 15.595 16.3598 16.17C16.2898 16.47 16.2398 16.875 16.2198 17.23C16.5498 17.23 16.8248 17.195 17.0648 17.125L16.9098 17.945C16.7748 18 16.4648 18.06 16.2198 18.06ZM17.806 14.7H18.716L18.111 18H17.201L17.806 14.7ZM19.6004 14.715L20.7454 14.67L20.8454 17.985L19.9354 18.045L19.9454 17.485H19.3554L19.1904 18H18.2804L19.6004 14.715ZM19.5854 16.78H19.9654L20.0004 15.53H19.9904L19.5854 16.78ZM21.9375 18.06C21.1875 18.06 21.0475 17.69 21.0475 17.155C21.0475 16.86 21.0925 16.525 21.1675 16.165C21.3825 15.1 21.7575 14.64 22.6575 14.64C22.8475 14.64 23.1075 14.695 23.2375 14.75L23.0475 15.53C22.9575 15.505 22.7475 15.46 22.5275 15.46C22.2825 15.46 22.2175 15.595 22.0775 16.17C22.0075 16.47 21.9575 16.875 21.9375 17.23C22.2675 17.23 22.5425 17.195 22.7825 17.125L22.6275 17.945C22.4925 18 22.1825 18.06 21.9375 18.06ZM23.5238 14.7H24.4338L23.8288 18H22.9188L23.5238 14.7ZM24.4782 16.165C24.6932 15.1 25.0482 14.64 25.9432 14.64C26.6382 14.64 26.8432 15.01 26.8432 15.545C26.8432 15.84 26.7832 16.175 26.7082 16.535C26.4932 17.6 26.1332 18.06 25.2382 18.06C24.5432 18.06 24.3382 17.69 24.3382 17.155C24.3382 16.86 24.4032 16.525 24.4782 16.165ZM25.3882 16.17C25.3132 16.48 25.2332 16.905 25.2132 17.27C25.2582 17.275 25.3032 17.275 25.3482 17.275C25.5932 17.275 25.6582 17.105 25.7932 16.53C25.8682 16.22 25.9432 15.79 25.9632 15.425C25.9232 15.42 25.8782 15.42 25.8332 15.42C25.5882 15.42 25.5282 15.595 25.3882 16.17ZM25.5182 14.57L25.4382 14.265L26.5132 13.93L26.6082 14.37L25.5182 14.57ZM28.9019 14.7H29.7569L29.1519 17.985L28.2469 18.045L27.9019 16.415H27.8869L27.5969 18H26.7469L27.3519 14.715L28.2469 14.655L28.5869 16.345H28.5969L28.9019 14.7Z" fill="white"/>
</g>
<defs>
<clipPath id="clip0_200_21">
<rect width="33" height="21" fill="white"/>
</clipPath>
</defs>
</svg>
