<svg xmlns="http://www.w3.org/2000/svg" width="33" height="19" fill="none" viewBox="0 0 33 19" role="presentation" focusable="false"><path fill="#00A651" d="M8.191.289.108 9.284 8.19 18.28h17.74V.289z"></path><path fill="#fff" d="M32.884.274h-7.722V18.42h7.722z"></path><path fill="#231F20" d="M30.752 13.317q.002.1-.007.17a.4.4 0 0 1-.022.115.2.2 0 0 1-.033.06.1.1 0 0 1-.047.018q-.038 0-.13-.063a2.2 2.2 0 0 0-.594-.267 1.7 1.7 0 0 0-.481-.062q-.292 0-.529.11-.238.114-.405.316c-.113.133-.2.3-.257.492a2 2 0 0 0-.09.633q-.002.383.09.67.09.29.257.486t.394.296a1.3 1.3 0 0 0 .782.067.9.9 0 0 0 .25-.104V15.22h-.76q-.054 0-.087-.078a.8.8 0 0 1-.033-.263c0-.063 0-.119.008-.163.003-.044.014-.078.021-.104a.2.2 0 0 1 .037-.059.07.07 0 0 1 .05-.018h1.358q.048 0 .087.018a.2.2 0 0 1 .068.056.2.2 0 0 1 .044.092q.014.056.014.122v1.77q0 .105-.032.182a.24.24 0 0 1-.134.122q-.103.044-.25.093-.149.05-.308.081a3 3 0 0 1-.651.07q-.482 0-.862-.151a1.7 1.7 0 0 1-.644-.444 1.95 1.95 0 0 1-.406-.708 3 3 0 0 1-.14-.948c0-.355.05-.692.148-.981a2.1 2.1 0 0 1 .423-.74q.275-.307.659-.468c.257-.107.547-.162.861-.162a2.6 2.6 0 0 1 .848.137q.159.055.264.122.105.065.148.115a.3.3 0 0 1 .062.137q.017.087.018.259zm.257-7.695c.029.085.043.148.05.2q.013.072-.028.11c-.03.027-.07.042-.134.045q-.098.01-.261.008c-.163-.002-.206 0-.271-.004a.5.5 0 0 1-.149-.022.15.15 0 0 1-.072-.045.2.2 0 0 1-.033-.074l-.297-.907H28.16l-.279.881a.2.2 0 0 1-.036.082.14.14 0 0 1-.073.052.5.5 0 0 1-.14.026 4 4 0 0 1-.236.007c-.105 0-.185 0-.246-.011-.058-.008-.102-.022-.123-.052q-.033-.038-.026-.115.013-.073.051-.196l1.358-4a.4.4 0 0 1 .047-.096.15.15 0 0 1 .087-.056 1 1 0 0 1 .166-.025q.107-.005.279-.004.2-.001.318.004a.6.6 0 0 1 .185.025.16.16 0 0 1 .094.06.4.4 0 0 1 .05.103l1.362 3.996zm-2.02-3.304-.623 1.915h1.25l-.624-1.915zm.047 4.879c.05 0 .1.022.136.059l.996 1.018a.2.2 0 0 1 0 .28.19.19 0 0 1-.274 0l-.664-.68v3.376c0 .11-.087.199-.194.199a.196.196 0 0 1-.194-.199V7.874l-.66.68a.19.19 0 0 1-.275 0 .2.2 0 0 1 0-.28l.992-1.018.03-.025a.2.2 0 0 1 .107-.034"></path><path fill="#231F20" d="m.305 9.284 8.071 8.977h24.327V.307H8.373zM33 18.28a.28.28 0 0 1-.279.285H8.365a.26.26 0 0 1-.203-.094L.074 9.476a.283.283 0 0 1 .005-.388L8.162.094l.004-.005A.28.28 0 0 1 8.365 0q.016 0 .031.004h24.325c.155 0 .279.127.279.285z"></path><path fill="#fff" d="M20.141 13.391q.074.25.095.393c.01.096-.004.166-.051.215q-.07.072-.243.088a5 5 0 0 1-.478.019c-.202 0-.376 0-.492-.011a1.6 1.6 0 0 1-.271-.04q-.093-.033-.13-.086a.4.4 0 0 1-.062-.144l-.54-1.79H14.95l-.51 1.741a1 1 0 0 1-.066.163.26.26 0 0 1-.13.104 1 1 0 0 1-.253.052 6 6 0 0 1-.431.015 4 4 0 0 1-.449-.022c-.109-.015-.18-.049-.224-.1q-.06-.078-.044-.223.018-.145.094-.385l2.48-7.892a.8.8 0 0 1 .087-.188.3.3 0 0 1 .16-.112q.109-.038.3-.048.19-.01.51-.01c.243 0 .438 0 .583.01s.257.022.34.048a.3.3 0 0 1 .174.115.7.7 0 0 1 .09.208l2.484 7.888zm-3.689-6.525h-.007l-1.136 3.781h2.28z"></path><path fill="#231F20" d="M16.474 5.037c.241 0 .44 0 .59.01.142.012.265.023.36.053a.4.4 0 0 1 .22.15q.066.093.104.232l2.483 7.888h-.002q.056.187.081.317l.015.083v.003c.012.109 0 .214-.076.291-.07.071-.175.104-.298.116q-.18.018-.487.019c-.2 0-.38 0-.5-.012a2 2 0 0 1-.289-.044l-.005-.002a.34.34 0 0 1-.174-.119.5.5 0 0 1-.075-.175l-.518-1.718h-2.886l-.49 1.674a1 1 0 0 1-.074.183.35.35 0 0 1-.175.143q-.113.043-.278.058h-.003q-.166.014-.437.015-.29 0-.46-.023c-.12-.016-.218-.055-.282-.131l-.003-.003a.4.4 0 0 1-.062-.29 2.3 2.3 0 0 1 .098-.403l2.48-7.892a1 1 0 0 1 .099-.212.4.4 0 0 1 .203-.146c.085-.03.197-.046.326-.053a9 9 0 0 1 .515-.011m0 .185q-.32 0-.505.01a1 1 0 0 0-.276.044.22.22 0 0 0-.114.076.7.7 0 0 0-.076.164l-2.48 7.893q-.075.236-.09.367c-.01.081.005.127.023.152.023.027.07.054.167.068q.153.021.437.021.26-.002.422-.014a1 1 0 0 0 .228-.046c.05-.021.074-.043.086-.064a.7.7 0 0 0 .057-.143l.51-1.74.02-.067h3.153l.02.066.54 1.793.01.035a.3.3 0 0 0 .038.079c.009.013.03.03.084.05q.078.021.252.037c.111.01.28.01.484.01q.302 0 .47-.018c.108-.01.162-.036.187-.062.018-.019.034-.054.025-.137a3 3 0 0 0-.091-.377v-.001l-2.48-7.88v-.002a.6.6 0 0 0-.078-.179c-.021-.03-.056-.058-.126-.08a1.6 1.6 0 0 0-.32-.044c-.141-.011-.333-.011-.577-.011m.045 1.552.02.065 1.173 3.9h-2.526l1.173-3.9.02-.065zm-1.088 3.78h2.036L16.449 7.17z"></path></svg>