<svg xmlns="http://www.w3.org/2000/svg" width="33" height="19" fill="none" viewBox="0 0 33 19" role="presentation" focusable="false"><path fill="#50B848" d="M8.191.289.108 9.284 8.19 18.28h17.74V.289z"></path><path fill="#fff" d="M32.884.274h-7.722V18.42h7.722z"></path><path fill="#231F20" d="M30.752 13.317q.002.1-.007.17a.4.4 0 0 1-.022.115.2.2 0 0 1-.033.06.1.1 0 0 1-.047.018q-.038 0-.13-.063a2.2 2.2 0 0 0-.594-.267 1.7 1.7 0 0 0-.481-.062q-.292 0-.529.11-.238.114-.405.316c-.113.133-.2.3-.257.492a2 2 0 0 0-.09.633q-.002.383.09.67.09.29.257.486t.394.296a1.3 1.3 0 0 0 .782.067.9.9 0 0 0 .25-.104V15.22h-.76q-.054 0-.087-.078a.8.8 0 0 1-.033-.263c0-.063 0-.119.008-.163.003-.044.014-.078.021-.104a.2.2 0 0 1 .037-.059.07.07 0 0 1 .05-.018h1.358q.048 0 .087.018a.2.2 0 0 1 .068.056.2.2 0 0 1 .044.092q.014.056.014.122v1.77q0 .105-.032.182a.24.24 0 0 1-.134.122q-.103.044-.25.093-.149.05-.308.081a3 3 0 0 1-.651.07q-.482 0-.862-.151a1.7 1.7 0 0 1-.644-.444 1.95 1.95 0 0 1-.406-.708 3 3 0 0 1-.14-.948c0-.355.05-.692.148-.981a2.1 2.1 0 0 1 .423-.74q.275-.307.659-.468c.257-.107.547-.162.861-.162a2.6 2.6 0 0 1 .848.137q.159.055.264.122.105.065.148.115a.3.3 0 0 1 .062.137q.017.087.018.259zm.257-7.695c.029.085.043.148.05.2q.013.072-.028.11c-.03.027-.07.042-.134.045q-.098.01-.261.008c-.163-.002-.206 0-.271-.004a.5.5 0 0 1-.149-.022.15.15 0 0 1-.072-.045.2.2 0 0 1-.033-.074l-.297-.907H28.16l-.279.881a.2.2 0 0 1-.036.082.14.14 0 0 1-.073.052.5.5 0 0 1-.14.026 4 4 0 0 1-.236.007c-.105 0-.185 0-.246-.011-.058-.008-.102-.022-.123-.052q-.033-.038-.026-.115.013-.073.051-.196l1.358-4a.4.4 0 0 1 .047-.096.15.15 0 0 1 .087-.056 1 1 0 0 1 .166-.025q.107-.005.279-.004.2-.001.318.004a.6.6 0 0 1 .185.025.16.16 0 0 1 .094.06.4.4 0 0 1 .05.103l1.362 3.996zm-2.02-3.304-.623 1.915h1.25l-.624-1.915zm.047 4.879c.05 0 .1.022.136.059l.996 1.018a.2.2 0 0 1 0 .28.19.19 0 0 1-.274 0l-.664-.68v3.376c0 .11-.087.199-.194.199a.196.196 0 0 1-.194-.199V7.874l-.66.68a.19.19 0 0 1-.275 0 .2.2 0 0 1 0-.28l.992-1.018.03-.025a.2.2 0 0 1 .107-.034"></path><path fill="#231F20" d="m.305 9.284 8.071 8.977h24.327V.307H8.373zM33 18.28a.28.28 0 0 1-.279.285H8.365a.26.26 0 0 1-.203-.094L.074 9.476a.283.283 0 0 1 .005-.388L8.162.094l.004-.005A.28.28 0 0 1 8.365 0q.016 0 .031.004h24.325c.155 0 .279.127.279.285z"></path><path fill="#fff" d="M19.378 11.395q0 .474-.12.86-.12.384-.326.68a2.2 2.2 0 0 1-.496.508 3 3 0 0 1-.637.352q-.347.138-.742.204a5.3 5.3 0 0 1-.88.066h-2.136a.48.48 0 0 1-.344-.133q-.14-.132-.14-.437V5.74q0-.302.14-.437a.48.48 0 0 1 .344-.133h2.02q.739-.001 1.253.137t.865.415q.353.28.536.703.186.425.188 1.004 0 .323-.076.607a2 2 0 0 1-.217.519 1.7 1.7 0 0 1-.825.7q.342.068.63.24t.503.445q.216.27.34.637.124.365.123.818zm-2.111-3.748q0-.268-.076-.481a.9.9 0 0 0-.224-.356 1 1 0 0 0-.377-.214 2 2 0 0 0-.605-.074h-.825v2.31h.912q.354 0 .565-.092a1 1 0 0 0 .561-.633q.07-.217.069-.456zm.416 3.811q0-.31-.094-.555a1 1 0 0 0-.271-.408 1.2 1.2 0 0 0-.46-.255 2.5 2.5 0 0 0-.728-.09h-.97v2.53h1.18q.342 0 .576-.078.232-.078.405-.233.17-.154.268-.385.098-.232.098-.526z"></path><path fill="#231F20" d="M13.466 5.74c0-.211.05-.39.17-.505a.57.57 0 0 1 .405-.158h2.02l.184.002q.628.014 1.092.138.529.141.898.431c.248.195.434.445.563.74s.196.645.196 1.04q0 .335-.08.633a2 2 0 0 1-.227.542 1.8 1.8 0 0 1-.64.624q.218.072.413.188c.2.12.38.276.528.466q.227.285.356.665c.087.256.127.537.128.849l-.005.026a3 3 0 0 1-.123.862 2.6 2.6 0 0 1-.338.707 2.3 2.3 0 0 1-.517.528 3 3 0 0 1-.657.363q-.356.142-.76.209-.405.068-.895.068h-2.136a.57.57 0 0 1-.405-.158c-.12-.114-.17-.29-.17-.505zm2.664 4.318q.457 0 .754.093h.001a1.3 1.3 0 0 1 .494.276q.195.178.294.442.096.252.1.562l.005.027q0 .31-.105.562c-.07.168-.17.306-.291.418h-.001q-.188.17-.437.252-.253.084-.604.083h-1.18a.09.09 0 0 1-.09-.093v-2.53c0-.05.04-.092.09-.092zm-.88 2.53h1.09q.332-.001.548-.074.215-.072.374-.214a1 1 0 0 0 .244-.352q.085-.204.09-.467l-.003-.023a1.5 1.5 0 0 0-.088-.522.94.94 0 0 0-.247-.371l-.001-.001q-.163-.151-.426-.236a2.4 2.4 0 0 0-.7-.085h-.88zm1.927-4.94q-.001-.256-.07-.45a.8.8 0 0 0-.17-.287l-.032-.033a.9.9 0 0 0-.342-.194h-.002a1.9 1.9 0 0 0-.576-.07h-.735V8.74h.822q.343-.001.529-.085a.91.91 0 0 0 .512-.578q.063-.2.064-.426zm.18.003q.001.252-.073.485t-.229.41a1.1 1.1 0 0 1-.382.279c-.157.07-.36.1-.6.1h-.913a.09.09 0 0 1-.09-.093v-2.31c0-.051.04-.093.09-.093h.825c.253 0 .466.022.631.078q.247.08.412.235a1 1 0 0 1 .248.392c.055.153.082.327.082.514zm-3.71 5.844c0 .192.044.305.112.369a.4.4 0 0 0 .282.108h2.136q.478 0 .866-.065.386-.064.723-.198a2.8 2.8 0 0 0 .617-.341q.277-.203.476-.486.196-.282.313-.656a2.8 2.8 0 0 0 .115-.831q0-.012.003-.023a2.4 2.4 0 0 0-.117-.765 2 2 0 0 0-.325-.609h-.001a1.7 1.7 0 0 0-.478-.423 1.9 1.9 0 0 0-.601-.23.09.09 0 0 1-.073-.081.09.09 0 0 1 .056-.095 1.67 1.67 0 0 0 .782-.663q.135-.222.207-.494a2.3 2.3 0 0 0 .073-.583c0-.375-.064-.698-.18-.966a1.7 1.7 0 0 0-.51-.668 2.3 2.3 0 0 0-.832-.399 4.5 4.5 0 0 0-1.05-.131l-.18-.003h-2.02a.4.4 0 0 0-.282.11c-.068.063-.112.18-.112.368z"></path></svg>