<svg xmlns="http://www.w3.org/2000/svg" width="33" height="19" fill="none" viewBox="0 0 33 19" role="presentation" focusable="false">
  <path fill="#C6D82F" d="M8.191.289.108 9.284 8.19 18.28h17.74V.289z"></path>
  <path fill="#fff" d="M32.884.274h-7.722V18.42h7.722z"></path>
  <path fill="#231F20" d="M30.752 13.317q.002.1-.007.17a.4.4 0 0 1-.022.115.2.2 0 0 1-.033.06.1.1 0 0 1-.047.018q-.038 0-.13-.063a2.2 2.2 0 0 0-.594-.267 1.7 1.7 0 0 0-.481-.062q-.292 0-.529.11-.238.114-.405.316c-.113.133-.2.3-.257.492a2 2 0 0 0-.09.633q-.002.383.09.67.09.29.257.486t.394.296a1.3 1.3 0 0 0 .782.067.9.9 0 0 0 .25-.104V15.22h-.76q-.054 0-.087-.078a.8.8 0 0 1-.033-.263c0-.063 0-.119.008-.163.003-.044.014-.078.021-.104a.2.2 0 0 1 .037-.059.07.07 0 0 1 .05-.018h1.358q.048 0 .087.018a.2.2 0 0 1 .068.056.2.2 0 0 1 .044.092q.014.056.014.122v1.77q0 .105-.032.182a.24.24 0 0 1-.134.122q-.103.044-.25.093-.149.05-.308.081a3 3 0 0 1-.651.07q-.482 0-.862-.151a1.7 1.7 0 0 1-.644-.444 1.95 1.95 0 0 1-.406-.708 3 3 0 0 1-.14-.948c0-.355.05-.692.148-.981a2.1 2.1 0 0 1 .423-.74q.275-.307.659-.468c.257-.107.547-.162.861-.162a2.6 2.6 0 0 1 .848.137q.159.055.264.122.105.065.148.115a.3.3 0 0 1 .062.137q.017.087.018.259zm.257-7.695c.029.085.043.148.05.2q.013.072-.028.11c-.03.027-.07.042-.134.045q-.098.01-.261.008c-.163-.002-.206 0-.271-.004a.5.5 0 0 1-.149-.022.15.15 0 0 1-.072-.045.2.2 0 0 1-.033-.074l-.297-.907H28.16l-.279.881a.2.2 0 0 1-.036.082.14.14 0 0 1-.073.052.5.5 0 0 1-.14.026 4 4 0 0 1-.236.007c-.105 0-.185 0-.246-.011-.058-.008-.102-.022-.123-.052q-.033-.038-.026-.115.013-.073.051-.196l1.358-4a.4.4 0 0 1 .047-.096.15.15 0 0 1 .087-.056 1 1 0 0 1 .166-.025q.107-.005.279-.004.2-.001.318.004a.6.6 0 0 1 .185.025.16.16 0 0 1 .094.06.4.4 0 0 1 .05.103l1.362 3.996zm-2.02-3.304-.623 1.915h1.25l-.624-1.915zm.047 4.879c.05 0 .1.022.136.059l.996 1.018a.2.2 0 0 1 0 .28.19.19 0 0 1-.274 0l-.664-.68v3.376c0 .11-.087.199-.194.199a.196.196 0 0 1-.194-.199V7.874l-.66.68a.19.19 0 0 1-.275 0 .2.2 0 0 1 0-.28l.992-1.018.03-.025a.2.2 0 0 1 .107-.034"></path>
  <path fill="#231F20" d="m.305 9.284 8.071 8.977h24.327V.307H8.373zM33 18.28a.28.28 0 0 1-.279.285H8.365a.26.26 0 0 1-.203-.094L.074 9.476a.283.283 0 0 1 .005-.388L8.162.094l.004-.005A.28.28 0 0 1 8.365 0q.016 0 .031.004h24.325c.155 0 .279.127.279.285z"></path>
  <text x="17" y="13.2" fill="#fff" font-family="system-ui, sans-serif" font-weight="900" font-size="11" text-anchor="middle">C</text>
</svg>
