<svg width="80" height="80" fill="none" viewBox="0 0 80 80" role="presentation" focusable="false" xmlns="http://www.w3.org/2000/svg"><path fill="#030303" d="M56.657 3.563a40.2 40.2 0 0 1 11.437 7.815c-13.731-.582-25.803 4.758-32.122 12.92-2.845 3.676-4.72 8.573-3.508 13.212.78 2.982 2.483 4.841 3.095 5.48-5.325-3.21-5.982-10.25-4.382-15.93C34.393 15.483 44.49 7.182 56.657 3.562m-30.92 43.015c5.322 2.56 12.378 3.137 16.467-1.544-.736.49-2.865 1.844-5.94 2.093-4.785.387-9.287-2.308-12.416-5.745-6.951-7.635-10.12-20.442-7.158-33.852a39.8 39.8 0 0 0-9.694 9.904l.002.01c1.458 12.593 7.888 23.962 18.74 29.134m7.557 7.697c5.724-1.456 11.5-5.544 11.62-11.756a12.5 12.5 0 0 1-3.203 5.418c-3.416 3.368-8.6 4.194-13.208 3.57-10.24-1.385-20.91-9.164-27.272-21.343a40.1 40.1 0 0 0-1.036 13.83c9.22 8.708 21.46 13.287 33.098 10.282m6.534-19.614c.86-.21 3.324-.754 6.3.063 4.627 1.27 7.935 5.342 9.7 9.64 3.917 9.55 2.51 22.666-4.864 34.255a39.9 39.9 0 0 0 12.497-5.992c2.946-12.336.798-25.221-7.63-33.79-4.125-4.225-10.558-7.178-16.003-4.176m4.208 20.658c3.448-4.79 5.242-11.632 1.337-16.467.356.81 1.32 3.139 1.032 6.208-.45 4.773-3.889 8.734-7.82 11.216-8.736 5.513-21.917 6.405-34.627 1.16a39.8 39.8 0 0 0 8.1 11.258c12.67.753 24.995-3.598 31.978-13.375M38.509 45.22a12.5 12.5 0 0 1-5.898-2.21c-3.913-2.776-5.628-7.732-5.813-12.374-.412-10.31 5.4-22.155 16.297-30.526-4.64-.343-9.315.12-13.8 1.369-6.988 10.584-9.378 23.422-4.394 34.35 2.43 5.38 7.464 10.352 13.608 9.391m12.856-16.198c-5.878-.588-12.705 1.28-14.945 7.077a12.5 12.5 0 0 1 4.866-3.997c4.363-1.998 9.517-1.004 13.634 1.157 9.145 4.8 16.507 15.75 18.317 29.363a39.8 39.8 0 0 0 5.718-12.614c-5.682-11.342-15.619-19.833-27.59-20.986M41.63 24.37c-4.881 3.323-8.91 9.139-6.895 15.017-.058-.882-.167-3.4 1.156-6.186 2.056-4.332 6.644-6.88 11.188-7.868C57.171 23.14 69.855 26.8 80 36.062a40.1 40.1 0 0 0-3.732-13.33c-11.65-5.04-24.727-5.164-34.64 1.639m11.307 24.85c-.44-5.883-3.469-12.276-9.572-13.472.794.391 3.032 1.556 4.785 4.093 2.728 3.944 2.642 9.187 1.227 13.613-3.144 9.832-12.667 18.978-25.778 23.12A40 40 0 0 0 37.047 80c10.19-7.558 16.83-18.805 15.89-30.778" class="base"></path></svg>