<svg xmlns="http://www.w3.org/2000/svg" width="164" height="24" fill="none" viewBox="0 0 164 24" role="presentation" focusable="false"><path fill="#030303" fill-rule="evenodd" d="M96.465.089c2.254.31 3.939 1.064 5.156 2.307 1.159 1.178 1.808 2.688 1.967 4.572l.032.396h-6.58l-.038-.37c-.09-.933-.638-1.443-1.898-1.77-1.764-.455-3.136-.184-3.556.701-.25.527-.042 1.352.452 1.846.52.516 1.217.744 3.854 1.276 2.466.5 4.082.983 5.4 1.624 1.127.554 1.787 1.091 2.361 1.938 1.089 1.613 1.355 3.703.717 5.658-1.031 3.149-3.657 5.038-7.84 5.64-.516.071-1.02.093-2.233.093-1.765 0-2.461-.076-3.8-.429-1.553-.407-2.754-.983-3.748-1.803-1.313-1.08-2.132-2.334-2.477-3.79A13 13 0 0 1 84 15.982v-.147h6.857l.021.12c.016.07.054.314.085.553.16 1.113.67 1.906 1.404 2.194.494.195 1.387.299 2.238.266 1.541-.06 2.392-.483 2.806-1.39.388-.847.064-1.618-.887-2.09-.229-.114-1.133-.402-2.291-.739-4.598-1.325-5.598-1.672-6.634-2.296-1.398-.848-2.302-1.982-2.7-3.388-.23-.831-.261-2.14-.075-3.155.468-2.498 2.238-4.376 4.97-5.267.936-.304 2.02-.504 3.349-.63.436-.037 2.891.017 3.322.077m25.116 5.917h-9.78l.01 1.748.016 1.754 4.667.016 4.662.01v4.996h-9.355v3.312h10.046v5.375h-16.638V.74h16.372zm7.878 2.237c.021 8.426-.016 7.699.425 8.622.372.787.957 1.26 1.877 1.53.367.104.542.126 1.302.12.67 0 .968-.021 1.249-.097 1.329-.353 2.015-1.287 2.206-2.992.032-.304.053-3.144.053-7.59V.74h6.485v6.798c0 6.77-.031 8.16-.191 9.263-.266 1.835-.898 3.143-2.126 4.381-1.308 1.32-2.865 2.069-5.183 2.476-.925.163-3.28.206-4.433.081-1.946-.211-3.429-.71-4.731-1.59-.627-.43-1.696-1.488-2.041-2.026-.51-.803-.962-1.97-1.17-3.024-.202-1.026-.218-1.705-.218-9.143V.74h6.485zm33.956 7.699c-.09-.505-.313-1.119-.526-1.45-.478-.755-1.095-1.162-2.259-1.504-.346-.098-.611-.195-.585-.206.027-.017.181-.07.34-.125a4.4 4.4 0 0 0 1.685-1.026c.872-.842 1.34-1.787 1.59-3.21.143-.83.133-2.318-.027-3.067-.25-1.183-.616-1.89-1.408-2.687-1.196-1.206-2.754-1.776-5.273-1.928-.495-.027-.968-.049-1.058-.038-.085.006-2.727.016-5.858.022l-5.704.016v22.478h6.432v-7.981h1.781c2.009 0 2.333.038 2.993.353.52.25.94.678 1.196 1.221.329.717.35.896.42 3.785l.063 2.622H164v-.179c0-.364-.532-6.814-.585-7.096m-7.245-5.864c-.771.38-1.605.489-3.875.489h-1.531V5.616l2.222.022c2.047.027 2.249.038 2.631.14.548.153.899.354 1.18.68.266.298.426.689.511 1.232.148.993-.319 1.976-1.138 2.389M79.312 24H33.99V0h45.32zm-46.666 0H14.211V0h18.435zm-19.779 0H0V0h12.867z" class="base" clip-rule="evenodd"></path></svg>
