<?xml version="1.0" encoding="utf-8"?>
<svg xmlns="http://www.w3.org/2000/svg" viewBox="0 0 500 500">
  <g fill="none" fill-rule="evenodd" transform="matrix(10.103454, 0, 0, 10.479055, -20.260662, 14.383675)" style="">
    <path d="M 51.272 20.39 C 51.272 33.733 40.256 44.55 26.666 44.55 C 13.076 44.55 2.06 33.733 2.06 20.39 L 17.439 20.39 L 17.439 24.5 C 19.692 21.985 22.985 20.39 26.666 20.39 C 32.535 20.39 37.435 24.428 38.663 29.826 C 40.778 27.243 42.045 23.963 42.045 20.39 L 51.272 20.39 Z M 47.981 23.41 L 44.867 23.41 C 43.408 31.98 35.811 38.508 26.666 38.508 C 23.269 38.508 20.52 35.805 20.52 32.469 C 20.52 29.134 23.269 26.434 26.666 26.434 C 30.063 26.434 32.817 29.056 32.817 32.469 C 32.817 33.136 32.68 33.766 32.478 34.366 C 33.704 33.873 34.846 33.221 35.892 32.451 C 35.892 27.466 31.76 23.411 26.666 23.411 C 21.57 23.411 17.439 27.466 17.439 32.469 C 17.439 37.472 21.57 41.529 26.666 41.529 C 37.513 41.529 46.51 33.655 47.981 23.409 L 47.981 23.41 Z M 14.363 23.41 L 5.381 23.41 C 6.356 30.085 10.485 35.754 16.259 38.892 C 15.065 37.03 14.364 34.833 14.364 32.47 L 14.363 32.47 L 14.363 23.41 Z M 26.666 29.45 C 24.967 29.45 23.59 30.801 23.59 32.469 C 23.59 34.137 24.967 35.489 26.666 35.489 C 28.365 35.489 29.742 34.137 29.742 32.469 C 29.742 30.801 28.365 29.449 26.666 29.449 L 26.666 29.45 Z M 35.893 15.11 L 35.893 18.13 L 17.439 18.13 L 17.439 15.11 L 35.893 15.11 Z M 34.355 3.78 C 37.752 3.78 40.507 6.485 40.507 9.82 L 40.507 12.84 L 37.431 12.84 L 37.431 9.82 C 37.431 8.153 36.054 6.8 34.355 6.8 C 34.081 6.8 33.818 6.847 33.565 6.913 C 34.053 7.78 34.354 8.76 34.354 9.82 L 34.354 12.84 L 31.28 12.84 L 31.28 9.82 C 31.28 8.153 29.903 6.8 28.204 6.8 L 28.204 12.84 L 25.128 12.84 L 25.128 6.8 C 23.429 6.8 22.052 8.153 22.052 9.82 L 22.052 12.84 L 18.977 12.84 L 18.977 9.82 C 18.977 8.76 19.279 7.78 19.767 6.914 C 19.514 6.848 19.251 6.801 18.978 6.801 C 17.278 6.801 15.902 8.153 15.902 9.821 L 15.902 12.841 L 12.826 12.841 L 12.826 9.821 C 12.826 6.485 15.58 3.781 18.978 3.781 C 20.105 3.781 21.16 4.087 22.07 4.609 C 22.974 4.096 24.01 3.781 25.128 3.781 C 25.651 3.781 26.148 3.865 26.633 3.986 C 27.136 3.856 27.66 3.781 28.204 3.781 C 29.33 3.781 30.37 4.099 31.278 4.617 C 32.186 4.098 33.229 3.781 34.355 3.781 L 34.355 3.78 Z M 27.338 -1.137 L 27.338 0.285 L 28.786 0.285 L 28.786 1.603 L 27.338 1.603 L 27.338 3.026 L 25.994 3.026 L 25.994 1.603 L 24.546 1.603 L 24.546 0.285 L 25.995 0.285 L 25.995 -1.137 L 27.338 -1.137 Z" style="fill: rgb(0, 0, 0);"/>
  </g>
</svg>