<svg xmlns="http://www.w3.org/2000/svg" width="24" height="24" fill="none" viewBox="0 0 24 24" role="presentation" focusable="false"><path fill="#4A4A4A" fill-rule="evenodd" d="M11.338 2.251a1 1 0 0 1 1.325 0 11 11 0 0 0 7.791 2.75 1 1 0 0 1 1.005.717 13 13 0 0 1-9.208 16.25 1 1 0 0 1-.502 0 13 13 0 0 1-9.208-16.25 1 1 0 0 1 1.005-.717 11 11 0 0 0 7.792-2.75m-7.066 4.76A11 11 0 0 0 12 19.964 11 11 0 0 0 19.728 7.01 13 13 0 0 1 12 4.297a13 13 0 0 1-7.728 2.714m11.435 2.282a1 1 0 0 1 0 1.414l-4 4a1 1 0 0 1-1.414 0l-2-2a1 1 0 1 1 1.414-1.414L11 12.586l3.293-3.293a1 1 0 0 1 1.414 0" class="base" clip-rule="evenodd"></path></svg>