<?xml version="1.0" encoding="utf-8"?>
<svg xmlns="http://www.w3.org/2000/svg" viewBox="0 0 500 500">
  <g id="Capa_2" data-name="Capa 2" transform="matrix(3.290535, 0, 0, 3.848838, -0.423953, 71.874603)" style="">
    <g id="home">
      <g id="nav_principal" data-name="nav principal">
        <path class="cls-1" d="M108.23,47.24c-.34,1.41.22,2.53,1.93,2.53h3.08c2,0,2.4-.77,2.74-2.19l.86-3.68c.13-.47.25-.68.81-.68h9.29c.56,0,.68.21.81.68l.86,3.68c.34,1.42.77,2.19,2.74,2.19h3.08c1.71,0,2.27-1.12,1.93-2.53l-5.1-21.31c-1-4.33-2.95-5.91-6.68-5.91H120c-3.72,0-5.65,1.58-6.67,5.91Zm17.3-10.91h-6.47c-.43,0-.6-.22-.51-.73l1.2-6.42c.38-1.93.85-2.23,2.22-2.23h.65c1.41,0,1.88.3,2.22,2.23L126,35.6C126.13,36.11,126,36.33,125.53,36.33Z" style=""/>
        <path class="cls-1" d="M85.89,49.17a29.88,29.88,0,0,0,7.58.81h1.28c9.72,0,11.9-3.17,11.9-9.33v-.17c0-5.44-2.61-7-10.32-9-3.81-1-5.17-1.28-5.17-2.48v-.22c0-1.2,1.19-1.84,4.49-1.84H96c3.9,0,6,1.29,7.75,1.29a2,2,0,0,0,2.1-2.14V23.4c0-1.63-.69-2.23-1.67-2.53A32.55,32.55,0,0,0,96.08,20H94.79c-9.41,0-11.47,3.17-11.47,9.2v.09c0,5.43,2.66,6.89,10.32,9,4.06,1.11,5.18,1.58,5.18,2.78v.17c0,1.28-1.24,1.8-4.5,1.8h-.38c-3.64,0-6-1.29-7.75-1.29a2,2,0,0,0-2.1,2.14v2.4c0,1.67.64,2.48,1.8,2.87" style=""/>
        <path class="cls-1" d="M57.77,49.77h3.42a2.07,2.07,0,0,0,2.14-2.14V43.48c0-.56.22-.73.73-.73h3.85c8.86,0,12.84-2.4,12.84-10.92v-.68c0-8.52-4-10.92-12.84-10.92H57.77a2.07,2.07,0,0,0-2.14,2.14V47.63a2.07,2.07,0,0,0,2.14,2.14m6.29-22.6h3.72c4.11,0,5.14.77,5.14,4.19v.26c0,3.38-1,4.19-5.14,4.19H64.06c-.56,0-.73-.17-.73-.72v-7.2C63.33,27.34,63.5,27.17,64.06,27.17Z" style=""/>
        <rect class="cls-1" x="43.94" y="20.23" width="7.83" height="29.53" rx="2.14" style=""/>
        <path class="cls-1" d="M26.78,49.77h3.55a2.07,2.07,0,0,0,2.14-2.14V27.94c0-.56.17-.73.73-.73h6.46a2.07,2.07,0,0,0,2.14-2.14V22.42a2.11,2.11,0,0,0-2.14-2.19H17.45a2.11,2.11,0,0,0-2.14,2.19v2.65a2.07,2.07,0,0,0,2.14,2.14h6.46c.56,0,.73.17.73.73V47.63a2.07,2.07,0,0,0,2.14,2.14" style=""/>
        <path class="cls-2" d="M4.51,17.52A1.63,1.63,0,0,0,6.2,15.83V6.71a.52.52,0,0,1,.51-.52h9.12A1.63,1.63,0,0,0,17.52,4.5V1.69A1.63,1.63,0,0,0,15.83,0H1.69A1.63,1.63,0,0,0,0,1.69Q0,8.76,0,15.83A1.63,1.63,0,0,0,1.7,17.52Z" style=""/>
        <path class="cls-2" d="M147.25,17.52a1.63,1.63,0,0,1-1.69-1.69V6.71a.51.51,0,0,0-.51-.52h-9.12a1.63,1.63,0,0,1-1.69-1.69V1.69A1.63,1.63,0,0,1,135.93,0h14.14a1.63,1.63,0,0,1,1.69,1.69q0,7.07,0,14.14a1.63,1.63,0,0,1-1.69,1.69Z" style=""/>
        <path class="cls-2" d="M147.25,52.48a1.63,1.63,0,0,0-1.69,1.69v9.12a.51.51,0,0,1-.51.52h-9.12a1.63,1.63,0,0,0-1.69,1.69v2.81A1.63,1.63,0,0,0,135.93,70h14.14a1.63,1.63,0,0,0,1.69-1.69q0-7.06,0-14.14a1.63,1.63,0,0,0-1.69-1.69Z" style=""/>
        <path class="cls-2" d="M4.51,52.48A1.63,1.63,0,0,1,6.2,54.17v9.12a.51.51,0,0,0,.51.52h9.12a1.63,1.63,0,0,1,1.69,1.69v2.81A1.63,1.63,0,0,1,15.83,70H1.69A1.63,1.63,0,0,1,0,68.31q0-7.06,0-14.14A1.63,1.63,0,0,1,1.7,52.48Z" style=""/>
      </g>
    </g>
  </g>
</svg>